<svg id="Capa_1" enable-background="new 0 0 512 512" height="512" viewBox="0 0 512 512" width="512" xmlns="http://www.w3.org/2000/svg"><g><path d="m278.969 151 124.995 150h-42.964v30h90v-90h-30v33.558l-127.969-153.558h-179.458l-89.432-121-24.141 17.813 98.427 133.187z"/><path d="m361 466h151v46h-151z"/><path d="m361 391h151v45h-151z"/><path d="m181 466h150v46h-150z"/><path d="m181 391h150v45h-150z"/><path d="m181 316h150v45h-150z"/><path d="m181 241h150v45h-150z"/><path d="m0 466h151v46h-151z"/><path d="m0 391h151v45h-151z"/><path d="m0 316h151v45h-151z"/><path d="m0 241h151v45h-151z"/><path d="m0 166h151v45h-151z"/></g></svg>